<mxfile host="65bd71144e" scale="1" border="10">
    <diagram id="-rriOPSDnHkLpZKLwRpb" name="Page-1">
        <mxGraphModel dx="3161" dy="2598" grid="1" gridSize="10" guides="1" tooltips="1" connect="1" arrows="1" fold="1" page="1" pageScale="1" pageWidth="850" pageHeight="1100" background="#FFFFFF" math="0" shadow="0">
            <root>
                <mxCell id="0"/>
                <mxCell id="1" parent="0"/>
                <mxCell id="344" value="(1, 1)" style="edgeStyle=elbowEdgeStyle;elbow=vertical;html=1;exitX=0.5;exitY=1;exitDx=0;exitDy=0;entryX=0.5;entryY=0;entryDx=0;entryDy=0;endArrow=none;endFill=0;rounded=0;jumpStyle=arc;startArrow=none;" parent="1" source="384" target="349" edge="1">
                    <mxGeometry x="-0.4926" y="-19" relative="1" as="geometry">
                        <mxPoint as="offset"/>
                    </mxGeometry>
                </mxCell>
                <mxCell id="346" value="UTENTE" style="whiteSpace=wrap;html=1;" parent="1" vertex="1">
                    <mxGeometry x="-2360.61" y="-2120.82" width="80" height="40" as="geometry"/>
                </mxCell>
                <mxCell id="349" value="REGISTRATO" style="whiteSpace=wrap;html=1;" parent="1" vertex="1">
                    <mxGeometry x="-2360.72" y="-1960.69" width="80" height="40" as="geometry"/>
                </mxCell>
                <mxCell id="352" value="" style="endArrow=oval;html=1;fillStyle=auto;strokeWidth=1;startSize=6;endSize=6;fillColor=#000000;startArrow=none;startFill=0;endFill=1;exitX=0.5;exitY=0;exitDx=0;exitDy=0;" parent="1" source="346" edge="1">
                    <mxGeometry width="50" height="50" relative="1" as="geometry">
                        <mxPoint x="-2180.58" y="-1539.8000000000002" as="sourcePoint"/>
                        <mxPoint x="-2320.58" y="-2144.98" as="targetPoint"/>
                    </mxGeometry>
                </mxCell>
                <mxCell id="353" value="nome utente" style="edgeLabel;html=1;align=center;verticalAlign=middle;resizable=0;points=[];" parent="352" vertex="1" connectable="0">
                    <mxGeometry x="0.4791" y="1" relative="1" as="geometry">
                        <mxPoint x="-30" y="-21" as="offset"/>
                    </mxGeometry>
                </mxCell>
                <mxCell id="354" value="" style="endArrow=oval;html=1;fillStyle=auto;strokeWidth=1;startSize=6;endSize=6;fillColor=#000000;startArrow=none;startFill=0;endFill=0;" parent="1" source="349" edge="1">
                    <mxGeometry width="50" height="50" relative="1" as="geometry">
                        <mxPoint x="-2399.6299999999997" y="-1652.4233333333332" as="sourcePoint"/>
                        <mxPoint x="-2360.72" y="-1980.0500000000002" as="targetPoint"/>
                    </mxGeometry>
                </mxCell>
                <mxCell id="355" value="password" style="edgeLabel;html=1;align=center;verticalAlign=middle;resizable=0;points=[];" parent="354" vertex="1" connectable="0">
                    <mxGeometry x="0.4791" y="1" relative="1" as="geometry">
                        <mxPoint x="-34" y="-16" as="offset"/>
                    </mxGeometry>
                </mxCell>
                <mxCell id="356" value="" style="endArrow=oval;html=1;fillStyle=auto;strokeWidth=1;startSize=6;endSize=6;fillColor=#000000;startArrow=none;startFill=0;endFill=0;" parent="1" source="349" edge="1">
                    <mxGeometry width="50" height="50" relative="1" as="geometry">
                        <mxPoint x="-2384.6299999999997" y="-1659.0900000000001" as="sourcePoint"/>
                        <mxPoint x="-2280" y="-1899.23" as="targetPoint"/>
                    </mxGeometry>
                </mxCell>
                <mxCell id="357" value="indirizzo&lt;br&gt;mail" style="edgeLabel;html=1;align=center;verticalAlign=middle;resizable=0;points=[];" parent="356" vertex="1" connectable="0">
                    <mxGeometry x="0.4791" y="1" relative="1" as="geometry">
                        <mxPoint x="35" y="11" as="offset"/>
                    </mxGeometry>
                </mxCell>
                <mxCell id="358" value="" style="endArrow=oval;html=1;fillStyle=auto;strokeWidth=1;startSize=6;endSize=6;fillColor=#000000;startArrow=none;startFill=0;endFill=0;" parent="1" source="349" edge="1">
                    <mxGeometry width="50" height="50" relative="1" as="geometry">
                        <mxPoint x="-2309.6444084278764" y="-1960.69" as="sourcePoint"/>
                        <mxPoint x="-2360" y="-1899.23" as="targetPoint"/>
                    </mxGeometry>
                </mxCell>
                <mxCell id="359" value="numero&lt;br&gt;di&lt;br&gt;telefono" style="edgeLabel;html=1;align=center;verticalAlign=middle;resizable=0;points=[];" parent="358" vertex="1" connectable="0">
                    <mxGeometry x="0.4791" y="1" relative="1" as="geometry">
                        <mxPoint x="-44" y="24" as="offset"/>
                    </mxGeometry>
                </mxCell>
                <mxCell id="360" value="" style="endArrow=oval;html=1;fillStyle=auto;strokeWidth=1;startSize=6;endSize=6;fillColor=#000000;startArrow=none;startFill=0;endFill=0;" parent="1" source="349" edge="1">
                    <mxGeometry width="50" height="50" relative="1" as="geometry">
                        <mxPoint x="-2364.6299999999997" y="-1639.0900000000001" as="sourcePoint"/>
                        <mxPoint x="-2260" y="-1980" as="targetPoint"/>
                    </mxGeometry>
                </mxCell>
                <mxCell id="361" value="data&lt;br&gt;di&lt;br&gt;nascita" style="edgeLabel;html=1;align=center;verticalAlign=middle;resizable=0;points=[];" parent="360" vertex="1" connectable="0">
                    <mxGeometry x="0.4791" y="1" relative="1" as="geometry">
                        <mxPoint x="32" y="-4" as="offset"/>
                    </mxGeometry>
                </mxCell>
                <mxCell id="362" value="" style="endArrow=oval;html=1;fillStyle=auto;strokeWidth=1;startSize=6;endSize=6;fillColor=#000000;startArrow=none;startFill=0;endFill=0;" parent="1" source="349" edge="1">
                    <mxGeometry width="50" height="50" relative="1" as="geometry">
                        <mxPoint x="-2330.0499999999997" y="-1951.27" as="sourcePoint"/>
                        <mxPoint x="-2380" y="-1940.23" as="targetPoint"/>
                    </mxGeometry>
                </mxCell>
                <mxCell id="363" value="LIS" style="edgeLabel;html=1;align=center;verticalAlign=middle;resizable=0;points=[];" parent="362" vertex="1" connectable="0">
                    <mxGeometry x="0.4791" y="1" relative="1" as="geometry">
                        <mxPoint x="-25" y="-1" as="offset"/>
                    </mxGeometry>
                </mxCell>
                <mxCell id="373" value="" style="endArrow=oval;html=1;fillStyle=auto;strokeWidth=1;startSize=6;endSize=6;fillColor=#000000;startArrow=none;startFill=0;endFill=0;" parent="1" source="349" edge="1">
                    <mxGeometry width="50" height="50" relative="1" as="geometry">
                        <mxPoint x="-2291.034960629921" y="-1910.69" as="sourcePoint"/>
                        <mxPoint x="-2260" y="-1939.23" as="targetPoint"/>
                    </mxGeometry>
                </mxCell>
                <mxCell id="374" value="premium" style="edgeLabel;html=1;align=center;verticalAlign=middle;resizable=0;points=[];" parent="373" vertex="1" connectable="0">
                    <mxGeometry x="0.4791" y="1" relative="1" as="geometry">
                        <mxPoint x="38" y="3" as="offset"/>
                    </mxGeometry>
                </mxCell>
                <mxCell id="382" value="&lt;font style=&quot;font-size: 10px;&quot;&gt;(0,1)&lt;/font&gt;" style="text;html=1;align=center;verticalAlign=middle;resizable=0;points=[];autosize=1;strokeColor=none;fillColor=none;" parent="1" vertex="1">
                    <mxGeometry x="-2369.9999999999995" y="-1899.2300000000002" width="40" height="30" as="geometry"/>
                </mxCell>
                <mxCell id="383" value="(0,1)" style="text;html=1;align=center;verticalAlign=middle;resizable=0;points=[];autosize=1;strokeColor=none;fillColor=none;fontSize=10;" parent="1" vertex="1">
                    <mxGeometry x="-2310" y="-1899.23" width="39" height="24" as="geometry"/>
                </mxCell>
                <mxCell id="385" value="(0, 1)" style="edgeStyle=elbowEdgeStyle;elbow=vertical;html=1;exitX=0.5;exitY=1;exitDx=0;exitDy=0;entryX=0.5;entryY=0;entryDx=0;entryDy=0;endArrow=none;endFill=0;rounded=0;jumpStyle=arc;" parent="1" source="346" target="384" edge="1">
                    <mxGeometry x="0.51" y="-19" relative="1" as="geometry">
                        <mxPoint x="-2320.61" y="-2080.82" as="sourcePoint"/>
                        <mxPoint x="-2320.72" y="-1920.69" as="targetPoint"/>
                        <mxPoint as="offset"/>
                    </mxGeometry>
                </mxCell>
                <mxCell id="384" value="parte di" style="rhombus;whiteSpace=wrap;html=1;" parent="1" vertex="1">
                    <mxGeometry x="-2360.61" y="-2040" width="80" height="40" as="geometry"/>
                </mxCell>
                <mxCell id="386" value="" style="endArrow=oval;html=1;fillStyle=auto;strokeWidth=1;startSize=6;endSize=6;fillColor=#000000;startArrow=none;startFill=0;endFill=1;" parent="1" edge="1">
                    <mxGeometry width="50" height="50" relative="1" as="geometry">
                        <mxPoint x="-2330" y="-1970" as="sourcePoint"/>
                        <mxPoint x="-2311" y="-1970" as="targetPoint"/>
                    </mxGeometry>
                </mxCell>
            </root>
        </mxGraphModel>
    </diagram>
</mxfile>
